<?xml version="1.0" encoding="UTF-8"?><svg xmlns="http://www.w3.org/2000/svg" xmlns:xlink="http://www.w3.org/1999/xlink" contentStyleType="text/css" data-diagram-type="CLASS" height="756px" preserveAspectRatio="none" style="width:1717px;height:756px;background:#FFFFFF;" version="1.1" viewBox="0 0 1717 756" width="1717px" zoomAndPan="magnify">
    <title>Diagrama de Clases - Dacarex Capital</title>
    <defs/>
    <g>
        <g class="title" data-source-line="1">
            <text fill="#000000" font-family="sans-serif" font-size="14" font-weight="bold" lengthAdjust="spacing" textLength="250.5645" x="726.6934" y="24.5332">Diagrama de Clases - Dacarex Capital</text>
        </g>
        <!--class TipoMovimiento-->
        <g class="entity" data-entity="TipoMovimiento" data-source-line="6" data-uid="ent0002" id="entity_TipoMovimiento">
            <rect fill="#F1F1F1" height="83.2188" rx="2.5" ry="2.5" style="stroke:#181818;stroke-width:0.5;" width="130.8135" x="7.5" y="116.1094"/>
            <ellipse cx="22.5" cy="132.1094" fill="#EB937F" rx="11" ry="11" style="stroke:#181818;stroke-width:1;"/>
            <path d="M21.3594,132.9063 L21.3594,135.4063 L25.6875,135.4063 L25.6875,134.4844 Q25.6875,133.875 25.9219,133.6094 Q26.1719,133.3438 26.5469,133.3438 Q26.9219,133.3438 27.1563,133.6094 Q27.3906,133.875 27.3906,134.4844 L27.3906,137.1094 L19.3906,137.1094 Q18.7656,137.1094 18.5,136.875 Q18.25,136.6406 18.25,136.25 Q18.25,135.875 18.5156,135.6406 Q18.7813,135.4063 19.3906,135.4063 L19.6563,135.4063 L19.6563,128.75 L19.3906,128.75 Q18.7656,128.75 18.5,128.5156 Q18.25,128.2813 18.25,127.8906 Q18.25,127.5156 18.5,127.2813 Q18.7656,127.0469 19.3906,127.0469 L27.0156,127.0469 L27.0156,129.6406 Q27.0156,130.25 26.7813,130.5156 Q26.5625,130.7656 26.1719,130.7656 Q25.7969,130.7656 25.5625,130.5156 Q25.3281,130.25 25.3281,129.6406 L25.3281,128.75 L21.3594,128.75 L21.3594,131.2031 L22.8438,131.2031 Q22.8438,130.5469 22.9688,130.3594 Q23.2344,129.9531 23.7031,129.9531 Q24.0781,129.9531 24.3125,130.2188 Q24.5469,130.4688 24.5469,131.0781 L24.5469,133.0469 Q24.5469,133.5938 24.4219,133.7813 Q24.1563,134.1719 23.7031,134.1719 Q23.2344,134.1719 22.9688,133.7656 Q22.8438,133.5781 22.8438,132.9063 L21.3594,132.9063 Z " fill="#000000"/>
            <text fill="#000000" font-family="sans-serif" font-size="14" lengthAdjust="spacing" textLength="98.8135" x="36.5" y="137.8379">TipoMovimiento</text>
            <line style="stroke:#181818;stroke-width:0.5;" x1="8.5" x2="137.3135" y1="148.1094" y2="148.1094"/>
            <text fill="#000000" font-family="sans-serif" font-size="14" lengthAdjust="spacing" textLength="64.5654" x="13.5" y="166.6426">INGRESO</text>
            <text fill="#000000" font-family="sans-serif" font-size="14" lengthAdjust="spacing" textLength="49.0068" x="13.5" y="184.252">GASTO</text>
            <line style="stroke:#181818;stroke-width:0.5;" x1="8.5" x2="137.3135" y1="191.3281" y2="191.3281"/>
        </g>
        <!--class TipoCuenta-->
        <g class="entity" data-entity="TipoCuenta" data-source-line="11" data-uid="ent0003" id="entity_TipoCuenta">
            <rect fill="#F1F1F1" height="83.2188" rx="2.5" ry="2.5" style="stroke:#181818;stroke-width:0.5;" width="104.3789" x="174" y="116.1094"/>
            <ellipse cx="189" cy="132.1094" fill="#EB937F" rx="11" ry="11" style="stroke:#181818;stroke-width:1;"/>
            <path d="M187.8594,132.9063 L187.8594,135.4063 L192.1875,135.4063 L192.1875,134.4844 Q192.1875,133.875 192.4219,133.6094 Q192.6719,133.3438 193.0469,133.3438 Q193.4219,133.3438 193.6563,133.6094 Q193.8906,133.875 193.8906,134.4844 L193.8906,137.1094 L185.8906,137.1094 Q185.2656,137.1094 185,136.875 Q184.75,136.6406 184.75,136.25 Q184.75,135.875 185.0156,135.6406 Q185.2813,135.4063 185.8906,135.4063 L186.1563,135.4063 L186.1563,128.75 L185.8906,128.75 Q185.2656,128.75 185,128.5156 Q184.75,128.2813 184.75,127.8906 Q184.75,127.5156 185,127.2813 Q185.2656,127.0469 185.8906,127.0469 L193.5156,127.0469 L193.5156,129.6406 Q193.5156,130.25 193.2813,130.5156 Q193.0625,130.7656 192.6719,130.7656 Q192.2969,130.7656 192.0625,130.5156 Q191.8281,130.25 191.8281,129.6406 L191.8281,128.75 L187.8594,128.75 L187.8594,131.2031 L189.3438,131.2031 Q189.3438,130.5469 189.4688,130.3594 Q189.7344,129.9531 190.2031,129.9531 Q190.5781,129.9531 190.8125,130.2188 Q191.0469,130.4688 191.0469,131.0781 L191.0469,133.0469 Q191.0469,133.5938 190.9219,133.7813 Q190.6563,134.1719 190.2031,134.1719 Q189.7344,134.1719 189.4688,133.7656 Q189.3438,133.5781 189.3438,132.9063 L187.8594,132.9063 Z " fill="#000000"/>
            <text fill="#000000" font-family="sans-serif" font-size="14" lengthAdjust="spacing" textLength="72.3789" x="203" y="137.8379">TipoCuenta</text>
            <line style="stroke:#181818;stroke-width:0.5;" x1="175" x2="277.3789" y1="148.1094" y2="148.1094"/>
            <text fill="#000000" font-family="sans-serif" font-size="14" lengthAdjust="spacing" textLength="76.248" x="180" y="166.6426">PERSONAL</text>
            <text fill="#000000" font-family="sans-serif" font-size="14" lengthAdjust="spacing" textLength="68.4619" x="180" y="184.252">EMPRESA</text>
            <line style="stroke:#181818;stroke-width:0.5;" x1="175" x2="277.3789" y1="191.3281" y2="191.3281"/>
        </g>
        <!--class TipoPeriodo-->
        <g class="entity" data-entity="TipoPeriodo" data-source-line="16" data-uid="ent0004" id="entity_TipoPeriodo">
            <rect fill="#F1F1F1" height="118.4375" rx="2.5" ry="2.5" style="stroke:#181818;stroke-width:0.5;" width="131.0273" x="313.5" y="98.6094"/>
            <ellipse cx="339.0921" cy="114.6094" fill="#EB937F" rx="11" ry="11" style="stroke:#181818;stroke-width:1;"/>
            <path d="M337.9515,115.4063 L337.9515,117.9063 L342.2796,117.9063 L342.2796,116.9844 Q342.2796,116.375 342.514,116.1094 Q342.764,115.8438 343.139,115.8438 Q343.514,115.8438 343.7484,116.1094 Q343.9828,116.375 343.9828,116.9844 L343.9828,119.6094 L335.9828,119.6094 Q335.3578,119.6094 335.0921,119.375 Q334.8421,119.1406 334.8421,118.75 Q334.8421,118.375 335.1078,118.1406 Q335.3734,117.9063 335.9828,117.9063 L336.2484,117.9063 L336.2484,111.25 L335.9828,111.25 Q335.3578,111.25 335.0921,111.0156 Q334.8421,110.7813 334.8421,110.3906 Q334.8421,110.0156 335.0921,109.7813 Q335.3578,109.5469 335.9828,109.5469 L343.6078,109.5469 L343.6078,112.1406 Q343.6078,112.75 343.3734,113.0156 Q343.1546,113.2656 342.764,113.2656 Q342.389,113.2656 342.1546,113.0156 Q341.9203,112.75 341.9203,112.1406 L341.9203,111.25 L337.9515,111.25 L337.9515,113.7031 L339.4359,113.7031 Q339.4359,113.0469 339.5609,112.8594 Q339.8265,112.4531 340.2953,112.4531 Q340.6703,112.4531 340.9046,112.7188 Q341.139,112.9688 341.139,113.5781 L341.139,115.5469 Q341.139,116.0938 341.014,116.2813 Q340.7484,116.6719 340.2953,116.6719 Q339.8265,116.6719 339.5609,116.2656 Q339.4359,116.0781 339.4359,115.4063 L337.9515,115.4063 Z " fill="#000000"/>
            <text fill="#000000" font-family="sans-serif" font-size="14" lengthAdjust="spacing" textLength="75.4893" x="355.4459" y="120.3379">TipoPeriodo</text>
            <line style="stroke:#181818;stroke-width:0.5;" x1="314.5" x2="443.5273" y1="130.6094" y2="130.6094"/>
            <text fill="#000000" font-family="sans-serif" font-size="14" lengthAdjust="spacing" textLength="67.6826" x="319.5" y="149.1426">MENSUAL</text>
            <text fill="#000000" font-family="sans-serif" font-size="14" lengthAdjust="spacing" textLength="88.6758" x="319.5" y="166.752">TRIMESTRAL</text>
            <text fill="#000000" font-family="sans-serif" font-size="14" lengthAdjust="spacing" textLength="46.6826" x="319.5" y="184.3613">ANUAL</text>
            <text fill="#000000" font-family="sans-serif" font-size="14" lengthAdjust="spacing" textLength="119.0273" x="319.5" y="201.9707">PERSONALIZADO</text>
            <line style="stroke:#181818;stroke-width:0.5;" x1="314.5" x2="443.5273" y1="209.0469" y2="209.0469"/>
        </g>
        <!--class TipoNotificacion-->
        <g class="entity" data-entity="TipoNotificacion" data-source-line="23" data-uid="ent0005" id="entity_TipoNotificacion">
            <rect fill="#F1F1F1" height="118.4375" rx="2.5" ry="2.5" style="stroke:#181818;stroke-width:0.5;" width="131.5996" x="7" y="373.6094"/>
            <ellipse cx="22" cy="389.6094" fill="#EB937F" rx="11" ry="11" style="stroke:#181818;stroke-width:1;"/>
            <path d="M20.8594,390.4063 L20.8594,392.9063 L25.1875,392.9063 L25.1875,391.9844 Q25.1875,391.375 25.4219,391.1094 Q25.6719,390.8438 26.0469,390.8438 Q26.4219,390.8438 26.6563,391.1094 Q26.8906,391.375 26.8906,391.9844 L26.8906,394.6094 L18.8906,394.6094 Q18.2656,394.6094 18,394.375 Q17.75,394.1406 17.75,393.75 Q17.75,393.375 18.0156,393.1406 Q18.2813,392.9063 18.8906,392.9063 L19.1563,392.9063 L19.1563,386.25 L18.8906,386.25 Q18.2656,386.25 18,386.0156 Q17.75,385.7813 17.75,385.3906 Q17.75,385.0156 18,384.7813 Q18.2656,384.5469 18.8906,384.5469 L26.5156,384.5469 L26.5156,387.1406 Q26.5156,387.75 26.2813,388.0156 Q26.0625,388.2656 25.6719,388.2656 Q25.2969,388.2656 25.0625,388.0156 Q24.8281,387.75 24.8281,387.1406 L24.8281,386.25 L20.8594,386.25 L20.8594,388.7031 L22.3438,388.7031 Q22.3438,388.0469 22.4688,387.8594 Q22.7344,387.4531 23.2031,387.4531 Q23.5781,387.4531 23.8125,387.7188 Q24.0469,387.9688 24.0469,388.5781 L24.0469,390.5469 Q24.0469,391.0938 23.9219,391.2813 Q23.6563,391.6719 23.2031,391.6719 Q22.7344,391.6719 22.4688,391.2656 Q22.3438,391.0781 22.3438,390.4063 L20.8594,390.4063 Z " fill="#000000"/>
            <text fill="#000000" font-family="sans-serif" font-size="14" lengthAdjust="spacing" textLength="99.5996" x="36" y="395.3379">TipoNotificacion</text>
            <line style="stroke:#181818;stroke-width:0.5;" x1="8" x2="137.5996" y1="405.6094" y2="405.6094"/>
            <text fill="#000000" font-family="sans-serif" font-size="14" lengthAdjust="spacing" textLength="42.0068" x="13" y="424.1426">EXITO</text>
            <text fill="#000000" font-family="sans-serif" font-size="14" lengthAdjust="spacing" textLength="99.5723" x="13" y="441.752">ADVERTENCIA</text>
            <text fill="#000000" font-family="sans-serif" font-size="14" lengthAdjust="spacing" textLength="50.5586" x="13" y="459.3613">ERROR</text>
            <text fill="#000000" font-family="sans-serif" font-size="14" lengthAdjust="spacing" textLength="99.5518" x="13" y="476.9707">INFORMACION</text>
            <line style="stroke:#181818;stroke-width:0.5;" x1="8" x2="137.5996" y1="484.0469" y2="484.0469"/>
        </g>
        <!--class Tema-->
        <g class="entity" data-entity="Tema" data-source-line="30" data-uid="ent0006" id="entity_Tema">
            <rect fill="#F1F1F1" height="83.2188" rx="2.5" ry="2.5" style="stroke:#181818;stroke-width:0.5;" width="73.4482" x="174.5" y="391.1094"/>
            <ellipse cx="192.0479" cy="407.1094" fill="#EB937F" rx="11" ry="11" style="stroke:#181818;stroke-width:1;"/>
            <path d="M190.9073,407.9063 L190.9073,410.4063 L195.2354,410.4063 L195.2354,409.4844 Q195.2354,408.875 195.4698,408.6094 Q195.7198,408.3438 196.0948,408.3438 Q196.4698,408.3438 196.7042,408.6094 Q196.9386,408.875 196.9386,409.4844 L196.9386,412.1094 L188.9386,412.1094 Q188.3136,412.1094 188.0479,411.875 Q187.7979,411.6406 187.7979,411.25 Q187.7979,410.875 188.0636,410.6406 Q188.3292,410.4063 188.9386,410.4063 L189.2042,410.4063 L189.2042,403.75 L188.9386,403.75 Q188.3136,403.75 188.0479,403.5156 Q187.7979,403.2813 187.7979,402.8906 Q187.7979,402.5156 188.0479,402.2813 Q188.3136,402.0469 188.9386,402.0469 L196.5636,402.0469 L196.5636,404.6406 Q196.5636,405.25 196.3292,405.5156 Q196.1104,405.7656 195.7198,405.7656 Q195.3448,405.7656 195.1104,405.5156 Q194.8761,405.25 194.8761,404.6406 L194.8761,403.75 L190.9073,403.75 L190.9073,406.2031 L192.3917,406.2031 Q192.3917,405.5469 192.5167,405.3594 Q192.7823,404.9531 193.2511,404.9531 Q193.6261,404.9531 193.8604,405.2188 Q194.0948,405.4688 194.0948,406.0781 L194.0948,408.0469 Q194.0948,408.5938 193.9698,408.7813 Q193.7042,409.1719 193.2511,409.1719 Q192.7823,409.1719 192.5167,408.7656 Q192.3917,408.5781 192.3917,407.9063 L190.9073,407.9063 Z " fill="#000000"/>
            <text fill="#000000" font-family="sans-serif" font-size="14" lengthAdjust="spacing" textLength="35.7861" x="206.6142" y="412.8379">Tema</text>
            <line style="stroke:#181818;stroke-width:0.5;" x1="175.5" x2="246.9482" y1="423.1094" y2="423.1094"/>
            <text fill="#000000" font-family="sans-serif" font-size="14" lengthAdjust="spacing" textLength="48.2344" x="180.5" y="441.6426">CLARO</text>
            <text fill="#000000" font-family="sans-serif" font-size="14" lengthAdjust="spacing" textLength="61.4482" x="180.5" y="459.252">OSCURO</text>
            <line style="stroke:#181818;stroke-width:0.5;" x1="175.5" x2="246.9482" y1="466.3281" y2="466.3281"/>
        </g>
        <!--class Usuario-->
        <g class="entity" data-entity="Usuario" data-source-line="38" data-uid="ent0007" id="entity_Usuario">
            <rect fill="#F1F1F1" height="224.0938" rx="2.5" ry="2.5" style="stroke:#181818;stroke-width:0.5;" width="173.875" x="1091" y="45.6094"/>
            <ellipse cx="1149.5669" cy="61.6094" fill="#ADD1B2" rx="11" ry="11" style="stroke:#181818;stroke-width:1;"/>
            <path d="M1152.3325,57.4844 Q1152.4888,57.2656 1152.6763,57.1563 Q1152.8638,57.0469 1153.0825,57.0469 Q1153.4575,57.0469 1153.6919,57.3125 Q1153.9263,57.5625 1153.9263,58.1719 L1153.9263,59.625 Q1153.9263,60.2344 1153.6919,60.5 Q1153.4575,60.7656 1153.0825,60.7656 Q1152.7388,60.7656 1152.5356,60.5625 Q1152.3325,60.375 1152.2231,59.8594 Q1152.1763,59.5 1151.9888,59.3125 Q1151.6606,58.9375 1151.0513,58.7188 Q1150.4419,58.5 1149.8169,58.5 Q1149.0513,58.5 1148.4106,58.8281 Q1147.7856,59.1563 1147.2856,59.9063 Q1146.8013,60.6563 1146.8013,61.6875 L1146.8013,62.7813 Q1146.8013,64.0156 1147.6919,64.8438 Q1148.5825,65.6563 1150.1763,65.6563 Q1151.1138,65.6563 1151.77,65.4063 Q1152.1606,65.25 1152.5825,64.8125 Q1152.8481,64.5469 1152.9888,64.4688 Q1153.145,64.3906 1153.3481,64.3906 Q1153.6763,64.3906 1153.9263,64.6563 Q1154.1919,64.9063 1154.1919,65.25 Q1154.1919,65.5938 1153.8481,66 Q1153.3481,66.5781 1152.5513,66.9063 Q1151.4731,67.3594 1150.1763,67.3594 Q1148.6606,67.3594 1147.4575,66.7344 Q1146.4731,66.2344 1145.7856,65.1719 Q1145.0981,64.0938 1145.0981,62.8125 L1145.0981,61.6563 Q1145.0981,60.3281 1145.7075,59.1875 Q1146.3325,58.0313 1147.4263,57.4219 Q1148.52,56.7969 1149.7544,56.7969 Q1150.4888,56.7969 1151.1294,56.9688 Q1151.7856,57.125 1152.3325,57.4844 Z " fill="#000000"/>
            <text fill="#000000" font-family="sans-serif" font-size="14" lengthAdjust="spacing" textLength="48.2412" x="1170.0669" y="67.3379">Usuario</text>
            <line style="stroke:#181818;stroke-width:0.5;" x1="1092" x2="1263.875" y1="77.6094" y2="77.6094"/>
            <rect fill="none" height="6" style="stroke:#C82930;stroke-width:1;" width="6" x="1099" y="88.9141"/>
            <text fill="#000000" font-family="sans-serif" font-size="14" lengthAdjust="spacing" textLength="52.8965" x="1111" y="96.1426">id: UUID</text>
            <rect fill="none" height="6" style="stroke:#C82930;stroke-width:1;" width="6" x="1099" y="106.5234"/>
            <text fill="#000000" font-family="sans-serif" font-size="14" lengthAdjust="spacing" textLength="91.8203" x="1111" y="113.752">nombre: String</text>
            <rect fill="none" height="6" style="stroke:#C82930;stroke-width:1;" width="6" x="1099" y="124.1328"/>
            <text fill="#000000" font-family="sans-serif" font-size="14" lengthAdjust="spacing" textLength="77.8066" x="1111" y="131.3613">email: String</text>
            <rect fill="none" height="6" style="stroke:#C82930;stroke-width:1;" width="6" x="1099" y="141.7422"/>
            <text fill="#000000" font-family="sans-serif" font-size="14" lengthAdjust="spacing" textLength="113.6201" x="1111" y="148.9707">contraseña: String</text>
            <rect fill="none" height="6" style="stroke:#C82930;stroke-width:1;" width="6" x="1099" y="159.3516"/>
            <text fill="#000000" font-family="sans-serif" font-size="14" lengthAdjust="spacing" textLength="147.875" x="1111" y="166.5801">tipoCuenta: TipoCuenta</text>
            <rect fill="none" height="6" style="stroke:#C82930;stroke-width:1;" width="6" x="1099" y="176.9609"/>
            <text fill="#000000" font-family="sans-serif" font-size="14" lengthAdjust="spacing" textLength="147.8408" x="1111" y="184.1895">nombreEmpresa: String</text>
            <line style="stroke:#181818;stroke-width:0.5;" x1="1092" x2="1263.875" y1="191.2656" y2="191.2656"/>
            <ellipse cx="1102" cy="205.5703" fill="#84BE84" rx="3" ry="3" style="stroke:#038048;stroke-width:1;"/>
            <text fill="#000000" font-family="sans-serif" font-size="14" lengthAdjust="spacing" textLength="140.0547" x="1111" y="209.7988">login(email, password)</text>
            <ellipse cx="1102" cy="223.1797" fill="#84BE84" rx="3" ry="3" style="stroke:#038048;stroke-width:1;"/>
            <text fill="#000000" font-family="sans-serif" font-size="14" lengthAdjust="spacing" textLength="60.6689" x="1111" y="227.4082">registrar()</text>
            <ellipse cx="1102" cy="240.7891" fill="#84BE84" rx="3" ry="3" style="stroke:#038048;stroke-width:1;"/>
            <text fill="#000000" font-family="sans-serif" font-size="14" lengthAdjust="spacing" textLength="101.1377" x="1111" y="245.0176">actualizarPerfil()</text>
            <ellipse cx="1102" cy="258.3984" fill="#84BE84" rx="3" ry="3" style="stroke:#038048;stroke-width:1;"/>
            <text fill="#000000" font-family="sans-serif" font-size="14" lengthAdjust="spacing" textLength="131.4961" x="1111" y="262.627">cambiarContraseña()</text>
        </g>
        <!--class Sesion-->
        <g class="entity" data-entity="Sesion" data-source-line="51" data-uid="ent0008" id="entity_Sesion">
            <rect fill="#F1F1F1" height="136.0469" rx="2.5" ry="2.5" style="stroke:#181818;stroke-width:0.5;" width="161.3926" x="855.5" y="364.6094"/>
            <ellipse cx="910.543" cy="380.6094" fill="#ADD1B2" rx="11" ry="11" style="stroke:#181818;stroke-width:1;"/>
            <path d="M913.3086,376.4844 Q913.4648,376.2656 913.6523,376.1563 Q913.8398,376.0469 914.0586,376.0469 Q914.4336,376.0469 914.668,376.3125 Q914.9023,376.5625 914.9023,377.1719 L914.9023,378.625 Q914.9023,379.2344 914.668,379.5 Q914.4336,379.7656 914.0586,379.7656 Q913.7148,379.7656 913.5117,379.5625 Q913.3086,379.375 913.1992,378.8594 Q913.1523,378.5 912.9648,378.3125 Q912.6367,377.9375 912.0273,377.7188 Q911.418,377.5 910.793,377.5 Q910.0273,377.5 909.3867,377.8281 Q908.7617,378.1563 908.2617,378.9063 Q907.7773,379.6563 907.7773,380.6875 L907.7773,381.7813 Q907.7773,383.0156 908.668,383.8438 Q909.5586,384.6563 911.1523,384.6563 Q912.0898,384.6563 912.7461,384.4063 Q913.1367,384.25 913.5586,383.8125 Q913.8242,383.5469 913.9648,383.4688 Q914.1211,383.3906 914.3242,383.3906 Q914.6523,383.3906 914.9023,383.6563 Q915.168,383.9063 915.168,384.25 Q915.168,384.5938 914.8242,385 Q914.3242,385.5781 913.5273,385.9063 Q912.4492,386.3594 911.1523,386.3594 Q909.6367,386.3594 908.4336,385.7344 Q907.4492,385.2344 906.7617,384.1719 Q906.0742,383.0938 906.0742,381.8125 L906.0742,380.6563 Q906.0742,379.3281 906.6836,378.1875 Q907.3086,377.0313 908.4023,376.4219 Q909.4961,375.7969 910.7305,375.7969 Q911.4648,375.7969 912.1055,375.9688 Q912.7617,376.125 913.3086,376.4844 Z " fill="#000000"/>
            <text fill="#000000" font-family="sans-serif" font-size="14" lengthAdjust="spacing" textLength="42.8066" x="931.043" y="386.3379">Sesion</text>
            <line style="stroke:#181818;stroke-width:0.5;" x1="856.5" x2="1015.8926" y1="396.6094" y2="396.6094"/>
            <rect fill="none" height="6" style="stroke:#C82930;stroke-width:1;" width="6" x="863.5" y="407.9141"/>
            <text fill="#000000" font-family="sans-serif" font-size="14" lengthAdjust="spacing" textLength="78.5996" x="875.5" y="415.1426">token: String</text>
            <rect fill="none" height="6" style="stroke:#C82930;stroke-width:1;" width="6" x="863.5" y="425.5234"/>
            <text fill="#000000" font-family="sans-serif" font-size="14" lengthAdjust="spacing" textLength="135.3926" x="875.5" y="432.752">fechaInicio: DateTime</text>
            <rect fill="none" height="6" style="stroke:#C82930;stroke-width:1;" width="6" x="863.5" y="443.1328"/>
            <text fill="#000000" font-family="sans-serif" font-size="14" lengthAdjust="spacing" textLength="95.7305" x="875.5" y="450.3613">activa: Boolean</text>
            <line style="stroke:#181818;stroke-width:0.5;" x1="856.5" x2="1015.8926" y1="457.4375" y2="457.4375"/>
            <ellipse cx="866.5" cy="471.7422" fill="#84BE84" rx="3" ry="3" style="stroke:#038048;stroke-width:1;"/>
            <text fill="#000000" font-family="sans-serif" font-size="14" lengthAdjust="spacing" textLength="88.6963" x="875.5" y="475.9707">iniciarSesion()</text>
            <ellipse cx="866.5" cy="489.3516" fill="#84BE84" rx="3" ry="3" style="stroke:#038048;stroke-width:1;"/>
            <text fill="#000000" font-family="sans-serif" font-size="14" lengthAdjust="spacing" textLength="88.6895" x="875.5" y="493.5801">cerrarSesion()</text>
        </g>
        <!--class Movimiento-->
        <g class="entity" data-entity="Movimiento" data-source-line="59" data-uid="ent0009" id="entity_Movimiento">
            <rect fill="#F1F1F1" height="206.4844" rx="2.5" ry="2.5" style="stroke:#181818;stroke-width:0.5;" width="155.165" x="665.5" y="329.6094"/>
            <ellipse cx="703.7137" cy="345.6094" fill="#ADD1B2" rx="11" ry="11" style="stroke:#181818;stroke-width:1;"/>
            <path d="M706.4793,341.4844 Q706.6355,341.2656 706.823,341.1563 Q707.0105,341.0469 707.2293,341.0469 Q707.6043,341.0469 707.8387,341.3125 Q708.073,341.5625 708.073,342.1719 L708.073,343.625 Q708.073,344.2344 707.8387,344.5 Q707.6043,344.7656 707.2293,344.7656 Q706.8855,344.7656 706.6824,344.5625 Q706.4793,344.375 706.3699,343.8594 Q706.323,343.5 706.1355,343.3125 Q705.8074,342.9375 705.198,342.7188 Q704.5887,342.5 703.9637,342.5 Q703.198,342.5 702.5574,342.8281 Q701.9324,343.1563 701.4324,343.9063 Q700.948,344.6563 700.948,345.6875 L700.948,346.7813 Q700.948,348.0156 701.8387,348.8438 Q702.7293,349.6563 704.323,349.6563 Q705.2605,349.6563 705.9168,349.4063 Q706.3074,349.25 706.7293,348.8125 Q706.9949,348.5469 707.1355,348.4688 Q707.2918,348.3906 707.4949,348.3906 Q707.823,348.3906 708.073,348.6563 Q708.3387,348.9063 708.3387,349.25 Q708.3387,349.5938 707.9949,350 Q707.4949,350.5781 706.698,350.9063 Q705.6199,351.3594 704.323,351.3594 Q702.8074,351.3594 701.6043,350.7344 Q700.6199,350.2344 699.9324,349.1719 Q699.2449,348.0938 699.2449,346.8125 L699.2449,345.6563 Q699.2449,344.3281 699.8543,343.1875 Q700.4793,342.0313 701.573,341.4219 Q702.6668,340.7969 703.9012,340.7969 Q704.6355,340.7969 705.2762,340.9688 Q705.9324,341.125 706.4793,341.4844 Z " fill="#000000"/>
            <text fill="#000000" font-family="sans-serif" font-size="14" lengthAdjust="spacing" textLength="71.5791" x="722.8723" y="351.3379">Movimiento</text>
            <line style="stroke:#181818;stroke-width:0.5;" x1="666.5" x2="819.665" y1="361.6094" y2="361.6094"/>
            <rect fill="none" height="6" style="stroke:#C82930;stroke-width:1;" width="6" x="673.5" y="372.9141"/>
            <text fill="#000000" font-family="sans-serif" font-size="14" lengthAdjust="spacing" textLength="52.8965" x="685.5" y="380.1426">id: UUID</text>
            <rect fill="none" height="6" style="stroke:#C82930;stroke-width:1;" width="6" x="673.5" y="390.5234"/>
            <text fill="#000000" font-family="sans-serif" font-size="14" lengthAdjust="spacing" textLength="129.165" x="685.5" y="397.752">tipo: TipoMovimiento</text>
            <rect fill="none" height="6" style="stroke:#C82930;stroke-width:1;" width="6" x="673.5" y="408.1328"/>
            <text fill="#000000" font-family="sans-serif" font-size="14" lengthAdjust="spacing" textLength="115.165" x="685.5" y="415.3613">descripcion: String</text>
            <rect fill="none" height="6" style="stroke:#C82930;stroke-width:1;" width="6" x="673.5" y="425.7422"/>
            <text fill="#000000" font-family="sans-serif" font-size="14" lengthAdjust="spacing" textLength="105.0273" x="685.5" y="432.9707">importe: Decimal</text>
            <rect fill="none" height="6" style="stroke:#C82930;stroke-width:1;" width="6" x="673.5" y="443.3516"/>
            <text fill="#000000" font-family="sans-serif" font-size="14" lengthAdjust="spacing" textLength="71.5996" x="685.5" y="450.5801">fecha: Date</text>
            <rect fill="none" height="6" style="stroke:#C82930;stroke-width:1;" width="6" x="673.5" y="460.9609"/>
            <text fill="#000000" font-family="sans-serif" font-size="14" lengthAdjust="spacing" textLength="78.5996" x="685.5" y="468.1895">notas: String</text>
            <line style="stroke:#181818;stroke-width:0.5;" x1="666.5" x2="819.665" y1="475.2656" y2="475.2656"/>
            <ellipse cx="676.5" cy="489.5703" fill="#84BE84" rx="3" ry="3" style="stroke:#038048;stroke-width:1;"/>
            <text fill="#000000" font-family="sans-serif" font-size="14" lengthAdjust="spacing" textLength="41.2207" x="685.5" y="493.7988">crear()</text>
            <ellipse cx="676.5" cy="507.1797" fill="#84BE84" rx="3" ry="3" style="stroke:#038048;stroke-width:1;"/>
            <text fill="#000000" font-family="sans-serif" font-size="14" lengthAdjust="spacing" textLength="44.3447" x="685.5" y="511.4082">editar()</text>
            <ellipse cx="676.5" cy="524.7891" fill="#84BE84" rx="3" ry="3" style="stroke:#038048;stroke-width:1;"/>
            <text fill="#000000" font-family="sans-serif" font-size="14" lengthAdjust="spacing" textLength="58.3379" x="685.5" y="529.0176">eliminar()</text>
        </g>
        <!--class Categoria-->
        <g class="entity" data-entity="Categoria" data-source-line="71" data-uid="ent0010" id="entity_Categoria">
            <rect fill="#F1F1F1" height="153.6563" rx="2.5" ry="2.5" style="stroke:#181818;stroke-width:0.5;" width="155.165" x="828.5" y="595.6094"/>
            <ellipse cx="871.6079" cy="611.6094" fill="#ADD1B2" rx="11" ry="11" style="stroke:#181818;stroke-width:1;"/>
            <path d="M874.3735,607.4844 Q874.5297,607.2656 874.7172,607.1563 Q874.9047,607.0469 875.1235,607.0469 Q875.4985,607.0469 875.7329,607.3125 Q875.9672,607.5625 875.9672,608.1719 L875.9672,609.625 Q875.9672,610.2344 875.7329,610.5 Q875.4985,610.7656 875.1235,610.7656 Q874.7797,610.7656 874.5766,610.5625 Q874.3735,610.375 874.2641,609.8594 Q874.2172,609.5 874.0297,609.3125 Q873.7016,608.9375 873.0922,608.7188 Q872.4829,608.5 871.8579,608.5 Q871.0922,608.5 870.4516,608.8281 Q869.8266,609.1563 869.3266,609.9063 Q868.8422,610.6563 868.8422,611.6875 L868.8422,612.7813 Q868.8422,614.0156 869.7329,614.8438 Q870.6235,615.6563 872.2172,615.6563 Q873.1547,615.6563 873.811,615.4063 Q874.2016,615.25 874.6235,614.8125 Q874.8891,614.5469 875.0297,614.4688 Q875.186,614.3906 875.3891,614.3906 Q875.7172,614.3906 875.9672,614.6563 Q876.2329,614.9063 876.2329,615.25 Q876.2329,615.5938 875.8891,616 Q875.3891,616.5781 874.5922,616.9063 Q873.5141,617.3594 872.2172,617.3594 Q870.7016,617.3594 869.4985,616.7344 Q868.5141,616.2344 867.8266,615.1719 Q867.1391,614.0938 867.1391,612.8125 L867.1391,611.6563 Q867.1391,610.3281 867.7485,609.1875 Q868.3735,608.0313 869.4672,607.4219 Q870.561,606.7969 871.7954,606.7969 Q872.5297,606.7969 873.1704,606.9688 Q873.8266,607.125 874.3735,607.4844 Z " fill="#000000"/>
            <text fill="#000000" font-family="sans-serif" font-size="14" lengthAdjust="spacing" textLength="60.7031" x="891.8541" y="617.3379">Categoria</text>
            <line style="stroke:#181818;stroke-width:0.5;" x1="829.5" x2="982.665" y1="627.6094" y2="627.6094"/>
            <rect fill="none" height="6" style="stroke:#C82930;stroke-width:1;" width="6" x="836.5" y="638.9141"/>
            <text fill="#000000" font-family="sans-serif" font-size="14" lengthAdjust="spacing" textLength="52.8965" x="848.5" y="646.1426">id: UUID</text>
            <rect fill="none" height="6" style="stroke:#C82930;stroke-width:1;" width="6" x="836.5" y="656.5234"/>
            <text fill="#000000" font-family="sans-serif" font-size="14" lengthAdjust="spacing" textLength="91.8203" x="848.5" y="663.752">nombre: String</text>
            <rect fill="none" height="6" style="stroke:#C82930;stroke-width:1;" width="6" x="836.5" y="674.1328"/>
            <text fill="#000000" font-family="sans-serif" font-size="14" lengthAdjust="spacing" textLength="129.165" x="848.5" y="681.3613">tipo: TipoMovimiento</text>
            <line style="stroke:#181818;stroke-width:0.5;" x1="829.5" x2="982.665" y1="688.4375" y2="688.4375"/>
            <ellipse cx="839.5" cy="702.7422" fill="#84BE84" rx="3" ry="3" style="stroke:#038048;stroke-width:1;"/>
            <text fill="#000000" font-family="sans-serif" font-size="14" lengthAdjust="spacing" textLength="41.2207" x="848.5" y="706.9707">crear()</text>
            <ellipse cx="839.5" cy="720.3516" fill="#84BE84" rx="3" ry="3" style="stroke:#038048;stroke-width:1;"/>
            <text fill="#000000" font-family="sans-serif" font-size="14" lengthAdjust="spacing" textLength="44.3447" x="848.5" y="724.5801">editar()</text>
            <ellipse cx="839.5" cy="737.9609" fill="#84BE84" rx="3" ry="3" style="stroke:#038048;stroke-width:1;"/>
            <text fill="#000000" font-family="sans-serif" font-size="14" lengthAdjust="spacing" textLength="58.3379" x="848.5" y="742.1895">eliminar()</text>
        </g>
        <!--class Reporte-->
        <g class="entity" data-entity="Reporte" data-source-line="80" data-uid="ent0011" id="entity_Reporte">
            <rect fill="#F1F1F1" height="153.6563" rx="2.5" ry="2.5" style="stroke:#181818;stroke-width:0.5;" width="180.0957" x="1123" y="355.6094"/>
            <ellipse cx="1183.8945" cy="371.6094" fill="#ADD1B2" rx="11" ry="11" style="stroke:#181818;stroke-width:1;"/>
            <path d="M1186.6602,367.4844 Q1186.8164,367.2656 1187.0039,367.1563 Q1187.1914,367.0469 1187.4102,367.0469 Q1187.7852,367.0469 1188.0195,367.3125 Q1188.2539,367.5625 1188.2539,368.1719 L1188.2539,369.625 Q1188.2539,370.2344 1188.0195,370.5 Q1187.7852,370.7656 1187.4102,370.7656 Q1187.0664,370.7656 1186.8633,370.5625 Q1186.6602,370.375 1186.5508,369.8594 Q1186.5039,369.5 1186.3164,369.3125 Q1185.9883,368.9375 1185.3789,368.7188 Q1184.7695,368.5 1184.1445,368.5 Q1183.3789,368.5 1182.7383,368.8281 Q1182.1133,369.1563 1181.6133,369.9063 Q1181.1289,370.6563 1181.1289,371.6875 L1181.1289,372.7813 Q1181.1289,374.0156 1182.0195,374.8438 Q1182.9102,375.6563 1184.5039,375.6563 Q1185.4414,375.6563 1186.0977,375.4063 Q1186.4883,375.25 1186.9102,374.8125 Q1187.1758,374.5469 1187.3164,374.4688 Q1187.4727,374.3906 1187.6758,374.3906 Q1188.0039,374.3906 1188.2539,374.6563 Q1188.5195,374.9063 1188.5195,375.25 Q1188.5195,375.5938 1188.1758,376 Q1187.6758,376.5781 1186.8789,376.9063 Q1185.8008,377.3594 1184.5039,377.3594 Q1182.9883,377.3594 1181.7852,376.7344 Q1180.8008,376.2344 1180.1133,375.1719 Q1179.4258,374.0938 1179.4258,372.8125 L1179.4258,371.6563 Q1179.4258,370.3281 1180.0352,369.1875 Q1180.6602,368.0313 1181.7539,367.4219 Q1182.8477,366.7969 1184.082,366.7969 Q1184.8164,366.7969 1185.457,366.9688 Q1186.1133,367.125 1186.6602,367.4844 Z " fill="#000000"/>
            <text fill="#000000" font-family="sans-serif" font-size="14" lengthAdjust="spacing" textLength="49.8066" x="1204.3945" y="377.3379">Reporte</text>
            <line style="stroke:#181818;stroke-width:0.5;" x1="1124" x2="1302.0957" y1="387.6094" y2="387.6094"/>
            <rect fill="none" height="6" style="stroke:#C82930;stroke-width:1;" width="6" x="1131" y="398.9141"/>
            <text fill="#000000" font-family="sans-serif" font-size="14" lengthAdjust="spacing" textLength="104.2822" x="1143" y="406.1426">fechaInicio: Date</text>
            <rect fill="none" height="6" style="stroke:#C82930;stroke-width:1;" width="6" x="1131" y="416.5234"/>
            <text fill="#000000" font-family="sans-serif" font-size="14" lengthAdjust="spacing" textLength="91.0479" x="1143" y="423.752">fechaFin: Date</text>
            <rect fill="none" height="6" style="stroke:#C82930;stroke-width:1;" width="6" x="1131" y="434.1328"/>
            <text fill="#000000" font-family="sans-serif" font-size="14" lengthAdjust="spacing" textLength="154.0957" x="1143" y="441.3613">tipoPeriodo: TipoPeriodo</text>
            <line style="stroke:#181818;stroke-width:0.5;" x1="1124" x2="1302.0957" y1="448.4375" y2="448.4375"/>
            <ellipse cx="1134" cy="462.7422" fill="#84BE84" rx="3" ry="3" style="stroke:#038048;stroke-width:1;"/>
            <text fill="#000000" font-family="sans-serif" font-size="14" lengthAdjust="spacing" textLength="117.4961" x="1143" y="466.9707">generarResumen()</text>
            <ellipse cx="1134" cy="480.3516" fill="#84BE84" rx="3" ry="3" style="stroke:#038048;stroke-width:1;"/>
            <text fill="#000000" font-family="sans-serif" font-size="14" lengthAdjust="spacing" textLength="111.2617" x="1143" y="484.5801">calcularIngresos()</text>
            <ellipse cx="1134" cy="497.9609" fill="#84BE84" rx="3" ry="3" style="stroke:#038048;stroke-width:1;"/>
            <text fill="#000000" font-family="sans-serif" font-size="14" lengthAdjust="spacing" textLength="101.917" x="1143" y="502.1895">calcularGastos()</text>
        </g>
        <!--class Configuracion-->
        <g class="entity" data-entity="Configuracion" data-source-line="89" data-uid="ent0012" id="entity_Configuracion">
            <rect fill="#F1F1F1" height="118.4375" rx="2.5" ry="2.5" style="stroke:#181818;stroke-width:0.5;" width="181.627" x="1338" y="373.6094"/>
            <ellipse cx="1381.4585" cy="389.6094" fill="#ADD1B2" rx="11" ry="11" style="stroke:#181818;stroke-width:1;"/>
            <path d="M1384.2242,385.4844 Q1384.3804,385.2656 1384.5679,385.1563 Q1384.7554,385.0469 1384.9742,385.0469 Q1385.3492,385.0469 1385.5835,385.3125 Q1385.8179,385.5625 1385.8179,386.1719 L1385.8179,387.625 Q1385.8179,388.2344 1385.5835,388.5 Q1385.3492,388.7656 1384.9742,388.7656 Q1384.6304,388.7656 1384.4273,388.5625 Q1384.2242,388.375 1384.1148,387.8594 Q1384.0679,387.5 1383.8804,387.3125 Q1383.5523,386.9375 1382.9429,386.7188 Q1382.3335,386.5 1381.7085,386.5 Q1380.9429,386.5 1380.3023,386.8281 Q1379.6773,387.1563 1379.1773,387.9063 Q1378.6929,388.6563 1378.6929,389.6875 L1378.6929,390.7813 Q1378.6929,392.0156 1379.5835,392.8438 Q1380.4742,393.6563 1382.0679,393.6563 Q1383.0054,393.6563 1383.6617,393.4063 Q1384.0523,393.25 1384.4742,392.8125 Q1384.7398,392.5469 1384.8804,392.4688 Q1385.0367,392.3906 1385.2398,392.3906 Q1385.5679,392.3906 1385.8179,392.6563 Q1386.0835,392.9063 1386.0835,393.25 Q1386.0835,393.5938 1385.7398,394 Q1385.2398,394.5781 1384.4429,394.9063 Q1383.3648,395.3594 1382.0679,395.3594 Q1380.5523,395.3594 1379.3492,394.7344 Q1378.3648,394.2344 1377.6773,393.1719 Q1376.9898,392.0938 1376.9898,390.8125 L1376.9898,389.6563 Q1376.9898,388.3281 1377.5992,387.1875 Q1378.2242,386.0313 1379.3179,385.4219 Q1380.4117,384.7969 1381.646,384.7969 Q1382.3804,384.7969 1383.021,384.9688 Q1383.6773,385.125 1384.2242,385.4844 Z " fill="#000000"/>
            <text fill="#000000" font-family="sans-serif" font-size="14" lengthAdjust="spacing" textLength="86.3857" x="1401.7827" y="395.3379">Configuracion</text>
            <line style="stroke:#181818;stroke-width:0.5;" x1="1339" x2="1518.627" y1="405.6094" y2="405.6094"/>
            <rect fill="none" height="6" style="stroke:#C82930;stroke-width:1;" width="6" x="1346" y="416.9141"/>
            <text fill="#000000" font-family="sans-serif" font-size="14" lengthAdjust="spacing" textLength="94.9443" x="1358" y="424.1426">moneda: String</text>
            <rect fill="none" height="6" style="stroke:#C82930;stroke-width:1;" width="6" x="1346" y="434.5234"/>
            <text fill="#000000" font-family="sans-serif" font-size="14" lengthAdjust="spacing" textLength="130.7236" x="1358" y="441.752">formatoFecha: String</text>
            <rect fill="none" height="6" style="stroke:#C82930;stroke-width:1;" width="6" x="1346" y="452.1328"/>
            <text fill="#000000" font-family="sans-serif" font-size="14" lengthAdjust="spacing" textLength="74.6895" x="1358" y="459.3613">tema: Tema</text>
            <line style="stroke:#181818;stroke-width:0.5;" x1="1339" x2="1518.627" y1="466.4375" y2="466.4375"/>
            <ellipse cx="1349" cy="480.7422" fill="#84BE84" rx="3" ry="3" style="stroke:#038048;stroke-width:1;"/>
            <text fill="#000000" font-family="sans-serif" font-size="14" lengthAdjust="spacing" textLength="155.627" x="1358" y="484.9707">actualizarConfiguracion()</text>
        </g>
        <!--class Notificacion-->
        <g class="entity" data-entity="Notificacion" data-source-line="96" data-uid="ent0013" id="entity_Notificacion">
            <rect fill="#F1F1F1" height="83.2188" rx="2.5" ry="2.5" style="stroke:#181818;stroke-width:0.5;" width="155.9512" x="1555" y="391.1094"/>
            <ellipse cx="1593.2137" cy="407.1094" fill="#ADD1B2" rx="11" ry="11" style="stroke:#181818;stroke-width:1;"/>
            <path d="M1595.9793,402.9844 Q1596.1355,402.7656 1596.323,402.6563 Q1596.5105,402.5469 1596.7293,402.5469 Q1597.1043,402.5469 1597.3387,402.8125 Q1597.573,403.0625 1597.573,403.6719 L1597.573,405.125 Q1597.573,405.7344 1597.3387,406 Q1597.1043,406.2656 1596.7293,406.2656 Q1596.3855,406.2656 1596.1824,406.0625 Q1595.9793,405.875 1595.8699,405.3594 Q1595.823,405 1595.6355,404.8125 Q1595.3074,404.4375 1594.698,404.2188 Q1594.0887,404 1593.4637,404 Q1592.698,404 1592.0574,404.3281 Q1591.4324,404.6563 1590.9324,405.4063 Q1590.448,406.1563 1590.448,407.1875 L1590.448,408.2813 Q1590.448,409.5156 1591.3387,410.3438 Q1592.2293,411.1563 1593.823,411.1563 Q1594.7605,411.1563 1595.4168,410.9063 Q1595.8074,410.75 1596.2293,410.3125 Q1596.4949,410.0469 1596.6355,409.9688 Q1596.7918,409.8906 1596.9949,409.8906 Q1597.323,409.8906 1597.573,410.1563 Q1597.8387,410.4063 1597.8387,410.75 Q1597.8387,411.0938 1597.4949,411.5 Q1596.9949,412.0781 1596.198,412.4063 Q1595.1199,412.8594 1593.823,412.8594 Q1592.3074,412.8594 1591.1043,412.2344 Q1590.1199,411.7344 1589.4324,410.6719 Q1588.7449,409.5938 1588.7449,408.3125 L1588.7449,407.1563 Q1588.7449,405.8281 1589.3543,404.6875 Q1589.9793,403.5313 1591.073,402.9219 Q1592.1668,402.2969 1593.4012,402.2969 Q1594.1355,402.2969 1594.7762,402.4688 Q1595.4324,402.625 1595.9793,402.9844 Z " fill="#000000"/>
            <text fill="#000000" font-family="sans-serif" font-size="14" lengthAdjust="spacing" textLength="72.3652" x="1612.3723" y="412.8379">Notificacion</text>
            <line style="stroke:#181818;stroke-width:0.5;" x1="1556" x2="1709.9512" y1="423.1094" y2="423.1094"/>
            <rect fill="none" height="6" style="stroke:#C82930;stroke-width:1;" width="6" x="1563" y="434.4141"/>
            <text fill="#000000" font-family="sans-serif" font-size="14" lengthAdjust="spacing" textLength="129.9512" x="1575" y="441.6426">tipo: TipoNotificacion</text>
            <rect fill="none" height="6" style="stroke:#C82930;stroke-width:1;" width="6" x="1563" y="452.0234"/>
            <text fill="#000000" font-family="sans-serif" font-size="14" lengthAdjust="spacing" textLength="97.2686" x="1575" y="459.252">mensaje: String</text>
            <line style="stroke:#181818;stroke-width:0.5;" x1="1556" x2="1709.9512" y1="466.3281" y2="466.3281"/>
        </g>
        <!--class FiltroMovimiento-->
        <g class="entity" data-entity="FiltroMovimiento" data-source-line="104" data-uid="ent0014" id="entity_FiltroMovimiento">
            <rect fill="#F1F1F1" height="136.0469" rx="2.5" ry="2.5" style="stroke:#181818;stroke-width:0.5;" width="155.165" x="479.5" y="89.6094"/>
            <ellipse cx="503.714" cy="105.6094" fill="#ADD1B2" rx="11" ry="11" style="stroke:#181818;stroke-width:1;"/>
            <path d="M506.4796,101.4844 Q506.6359,101.2656 506.8234,101.1563 Q507.0109,101.0469 507.2296,101.0469 Q507.6046,101.0469 507.839,101.3125 Q508.0734,101.5625 508.0734,102.1719 L508.0734,103.625 Q508.0734,104.2344 507.839,104.5 Q507.6046,104.7656 507.2296,104.7656 Q506.8859,104.7656 506.6828,104.5625 Q506.4796,104.375 506.3703,103.8594 Q506.3234,103.5 506.1359,103.3125 Q505.8078,102.9375 505.1984,102.7188 Q504.589,102.5 503.964,102.5 Q503.1984,102.5 502.5578,102.8281 Q501.9328,103.1563 501.4328,103.9063 Q500.9484,104.6563 500.9484,105.6875 L500.9484,106.7813 Q500.9484,108.0156 501.839,108.8438 Q502.7296,109.6563 504.3234,109.6563 Q505.2609,109.6563 505.9171,109.4063 Q506.3078,109.25 506.7296,108.8125 Q506.9953,108.5469 507.1359,108.4688 Q507.2921,108.3906 507.4953,108.3906 Q507.8234,108.3906 508.0734,108.6563 Q508.339,108.9063 508.339,109.25 Q508.339,109.5938 507.9953,110 Q507.4953,110.5781 506.6984,110.9063 Q505.6203,111.3594 504.3234,111.3594 Q502.8078,111.3594 501.6046,110.7344 Q500.6203,110.2344 499.9328,109.1719 Q499.2453,108.0938 499.2453,106.8125 L499.2453,105.6563 Q499.2453,104.3281 499.8546,103.1875 Q500.4796,102.0313 501.5734,101.4219 Q502.6671,100.7969 503.9015,100.7969 Q504.6359,100.7969 505.2765,100.9688 Q505.9328,101.125 506.4796,101.4844 Z " fill="#000000"/>
            <text fill="#000000" font-family="sans-serif" font-size="14" lengthAdjust="spacing" textLength="102.6895" x="519.7616" y="111.3379">FiltroMovimiento</text>
            <line style="stroke:#181818;stroke-width:0.5;" x1="480.5" x2="633.665" y1="121.6094" y2="121.6094"/>
            <rect fill="none" height="6" style="stroke:#C82930;stroke-width:1;" width="6" x="487.5" y="132.9141"/>
            <text fill="#000000" font-family="sans-serif" font-size="14" lengthAdjust="spacing" textLength="112.0684" x="499.5" y="140.1426">fechaDesde: Date</text>
            <rect fill="none" height="6" style="stroke:#C82930;stroke-width:1;" width="6" x="487.5" y="150.5234"/>
            <text fill="#000000" font-family="sans-serif" font-size="14" lengthAdjust="spacing" textLength="108.1719" x="499.5" y="157.752">fechaHasta: Date</text>
            <rect fill="none" height="6" style="stroke:#C82930;stroke-width:1;" width="6" x="487.5" y="168.1328"/>
            <text fill="#000000" font-family="sans-serif" font-size="14" lengthAdjust="spacing" textLength="129.165" x="499.5" y="175.3613">tipo: TipoMovimiento</text>
            <line style="stroke:#181818;stroke-width:0.5;" x1="480.5" x2="633.665" y1="182.4375" y2="182.4375"/>
            <ellipse cx="490.5" cy="196.7422" fill="#84BE84" rx="3" ry="3" style="stroke:#038048;stroke-width:1;"/>
            <text fill="#000000" font-family="sans-serif" font-size="14" lengthAdjust="spacing" textLength="50.5654" x="499.5" y="200.9707">aplicar()</text>
            <ellipse cx="490.5" cy="214.3516" fill="#84BE84" rx="3" ry="3" style="stroke:#038048;stroke-width:1;"/>
            <text fill="#000000" font-family="sans-serif" font-size="14" lengthAdjust="spacing" textLength="50.5518" x="499.5" y="218.5801">limpiar()</text>
        </g>
        <!--class TablaMovimientos-->
        <g class="entity" data-entity="TablaMovimientos" data-source-line="112" data-uid="ent0015" id="entity_TablaMovimientos">
            <rect fill="#F1F1F1" height="100.8281" rx="2.5" ry="2.5" style="stroke:#181818;stroke-width:0.5;" width="145.5996" x="670" y="107.1094"/>
            <ellipse cx="685" cy="123.1094" fill="#ADD1B2" rx="11" ry="11" style="stroke:#181818;stroke-width:1;"/>
            <path d="M687.7656,118.9844 Q687.9219,118.7656 688.1094,118.6563 Q688.2969,118.5469 688.5156,118.5469 Q688.8906,118.5469 689.125,118.8125 Q689.3594,119.0625 689.3594,119.6719 L689.3594,121.125 Q689.3594,121.7344 689.125,122 Q688.8906,122.2656 688.5156,122.2656 Q688.1719,122.2656 687.9688,122.0625 Q687.7656,121.875 687.6563,121.3594 Q687.6094,121 687.4219,120.8125 Q687.0938,120.4375 686.4844,120.2188 Q685.875,120 685.25,120 Q684.4844,120 683.8438,120.3281 Q683.2188,120.6563 682.7188,121.4063 Q682.2344,122.1563 682.2344,123.1875 L682.2344,124.2813 Q682.2344,125.5156 683.125,126.3438 Q684.0156,127.1563 685.6094,127.1563 Q686.5469,127.1563 687.2031,126.9063 Q687.5938,126.75 688.0156,126.3125 Q688.2813,126.0469 688.4219,125.9688 Q688.5781,125.8906 688.7813,125.8906 Q689.1094,125.8906 689.3594,126.1563 Q689.625,126.4063 689.625,126.75 Q689.625,127.0938 689.2813,127.5 Q688.7813,128.0781 687.9844,128.4063 Q686.9063,128.8594 685.6094,128.8594 Q684.0938,128.8594 682.8906,128.2344 Q681.9063,127.7344 681.2188,126.6719 Q680.5313,125.5938 680.5313,124.3125 L680.5313,123.1563 Q680.5313,121.8281 681.1406,120.6875 Q681.7656,119.5313 682.8594,118.9219 Q683.9531,118.2969 685.1875,118.2969 Q685.9219,118.2969 686.5625,118.4688 Q687.2188,118.625 687.7656,118.9844 Z " fill="#000000"/>
            <text fill="#000000" font-family="sans-serif" font-size="14" lengthAdjust="spacing" textLength="113.5996" x="699" y="128.8379">TablaMovimientos</text>
            <line style="stroke:#181818;stroke-width:0.5;" x1="671" x2="814.5996" y1="139.1094" y2="139.1094"/>
            <line style="stroke:#181818;stroke-width:0.5;" x1="671" x2="814.5996" y1="147.1094" y2="147.1094"/>
            <ellipse cx="681" cy="161.4141" fill="#84BE84" rx="3" ry="3" style="stroke:#038048;stroke-width:1;"/>
            <text fill="#000000" font-family="sans-serif" font-size="14" lengthAdjust="spacing" textLength="40.4346" x="690" y="165.6426">filtrar()</text>
            <ellipse cx="681" cy="179.0234" fill="#84BE84" rx="3" ry="3" style="stroke:#038048;stroke-width:1;"/>
            <text fill="#000000" font-family="sans-serif" font-size="14" lengthAdjust="spacing" textLength="51.3447" x="690" y="183.252">buscar()</text>
            <ellipse cx="681" cy="196.6328" fill="#84BE84" rx="3" ry="3" style="stroke:#038048;stroke-width:1;"/>
            <text fill="#000000" font-family="sans-serif" font-size="14" lengthAdjust="spacing" textLength="60.6826" x="690" y="200.8613">exportar()</text>
        </g>
        <!--class FormularioMovimiento-->
        <g class="entity" data-entity="FormularioMovimiento" data-source-line="118" data-uid="ent0016" id="entity_FormularioMovimiento">
            <rect fill="#F1F1F1" height="83.2188" rx="2.5" ry="2.5" style="stroke:#181818;stroke-width:0.5;" width="170.4824" x="851" y="116.1094"/>
            <ellipse cx="866" cy="132.1094" fill="#ADD1B2" rx="11" ry="11" style="stroke:#181818;stroke-width:1;"/>
            <path d="M868.7656,127.9844 Q868.9219,127.7656 869.1094,127.6563 Q869.2969,127.5469 869.5156,127.5469 Q869.8906,127.5469 870.125,127.8125 Q870.3594,128.0625 870.3594,128.6719 L870.3594,130.125 Q870.3594,130.7344 870.125,131 Q869.8906,131.2656 869.5156,131.2656 Q869.1719,131.2656 868.9688,131.0625 Q868.7656,130.875 868.6563,130.3594 Q868.6094,130 868.4219,129.8125 Q868.0938,129.4375 867.4844,129.2188 Q866.875,129 866.25,129 Q865.4844,129 864.8438,129.3281 Q864.2188,129.6563 863.7188,130.4063 Q863.2344,131.1563 863.2344,132.1875 L863.2344,133.2813 Q863.2344,134.5156 864.125,135.3438 Q865.0156,136.1563 866.6094,136.1563 Q867.5469,136.1563 868.2031,135.9063 Q868.5938,135.75 869.0156,135.3125 Q869.2813,135.0469 869.4219,134.9688 Q869.5781,134.8906 869.7813,134.8906 Q870.1094,134.8906 870.3594,135.1563 Q870.625,135.4063 870.625,135.75 Q870.625,136.0938 870.2813,136.5 Q869.7813,137.0781 868.9844,137.4063 Q867.9063,137.8594 866.6094,137.8594 Q865.0938,137.8594 863.8906,137.2344 Q862.9063,136.7344 862.2188,135.6719 Q861.5313,134.5938 861.5313,133.3125 L861.5313,132.1563 Q861.5313,130.8281 862.1406,129.6875 Q862.7656,128.5313 863.8594,127.9219 Q864.9531,127.2969 866.1875,127.2969 Q866.9219,127.2969 867.5625,127.4688 Q868.2188,127.625 868.7656,127.9844 Z " fill="#000000"/>
            <text fill="#000000" font-family="sans-serif" font-size="14" lengthAdjust="spacing" textLength="138.4824" x="880" y="137.8379">FormularioMovimiento</text>
            <line style="stroke:#181818;stroke-width:0.5;" x1="852" x2="1020.4824" y1="148.1094" y2="148.1094"/>
            <line style="stroke:#181818;stroke-width:0.5;" x1="852" x2="1020.4824" y1="156.1094" y2="156.1094"/>
            <ellipse cx="862" cy="170.4141" fill="#84BE84" rx="3" ry="3" style="stroke:#038048;stroke-width:1;"/>
            <text fill="#000000" font-family="sans-serif" font-size="14" lengthAdjust="spacing" textLength="50.5654" x="871" y="174.6426">validar()</text>
            <ellipse cx="862" cy="188.0234" fill="#84BE84" rx="3" ry="3" style="stroke:#038048;stroke-width:1;"/>
            <text fill="#000000" font-family="sans-serif" font-size="14" lengthAdjust="spacing" textLength="47.4551" x="871" y="192.252">enviar()</text>
        </g>
        <!--link Usuario to Sesion-->
        <g class="link" data-entity-1="Usuario" data-entity-2="Sesion" data-source-line="126" data-uid="lnk17" id="link_Usuario_Sesion">
            <path codeLine="126" d="M1090.97,256.7794 C1059.27,292.5494 1024.17,332.1494 995.41,364.5894" fill="none" id="Usuario-Sesion" style="stroke:#181818;stroke-width:1;"/>
            <text fill="#000000" font-family="sans-serif" font-size="13" lengthAdjust="spacing" textLength="7.23" x="1075.6406" y="262.6911">1</text>
            <text fill="#000000" font-family="sans-serif" font-size="13" lengthAdjust="spacing" textLength="7.23" x="994.5163" y="353.7865">1</text>
        </g>
        <!--link Usuario to Movimiento-->
        <g class="link" data-entity-1="Usuario" data-entity-2="Movimiento" data-source-line="127" data-uid="lnk18" id="link_Usuario_Movimiento">
            <path codeLine="127" d="M1090.65,236.5194 C1074.23,248.7494 1056.65,260.3794 1039,269.6094 C956.39,312.8194 917.21,280.4394 838,329.6094 C832.04,333.3094 826.21,337.4794 820.55,341.9694" fill="none" id="Usuario-Movimiento" style="stroke:#181818;stroke-width:1;"/>
            <text fill="#000000" font-family="sans-serif" font-size="13" lengthAdjust="spacing" textLength="7.23" x="1075.8578" y="240.1194">1</text>
            <text fill="#000000" font-family="sans-serif" font-size="13" lengthAdjust="spacing" textLength="5.0591" x="828.7997" y="329.2854">*</text>
        </g>
        <!--link Usuario to Categoria-->
        <g class="link" data-entity-1="Usuario" data-entity-2="Categoria" data-source-line="128" data-uid="lnk19" id="link_Usuario_Categoria">
            <path codeLine="128" d="M1129.94,269.9594 C1121.74,289.7494 1113.46,310.2194 1106,329.6094 C1071.16,420.1194 1084.34,452.7094 1034,535.6094 C1020.12,558.4794 1001.89,580.7294 983.56,600.3894" fill="none" id="Usuario-Categoria" style="stroke:#181818;stroke-width:1;"/>
            <text fill="#000000" font-family="sans-serif" font-size="13" lengthAdjust="spacing" textLength="7.23" x="1119.6483" y="291.1727">1</text>
            <text fill="#000000" font-family="sans-serif" font-size="13" lengthAdjust="spacing" textLength="5.0591" x="991.8107" y="589.6477">*</text>
        </g>
        <!--link Usuario to Configuracion-->
        <g class="link" data-entity-1="Usuario" data-entity-2="Configuracion" data-source-line="129" data-uid="lnk20" id="link_Usuario_Configuracion">
            <path codeLine="129" d="M1265.08,253.3294 C1301.76,293.2094 1343.27,338.3694 1375.35,373.2494" fill="none" id="Usuario-Configuracion" style="stroke:#181818;stroke-width:1;"/>
            <text fill="#000000" font-family="sans-serif" font-size="13" lengthAdjust="spacing" textLength="7.23" x="1272.8795" y="258.374">1</text>
            <text fill="#000000" font-family="sans-serif" font-size="13" lengthAdjust="spacing" textLength="7.23" x="1361.7769" y="362.951">1</text>
        </g>
        <!--link Usuario to Reporte-->
        <g class="link" data-entity-1="Usuario" data-entity-2="Reporte" data-source-line="130" data-uid="lnk21" id="link_Usuario_Reporte">
            <path codeLine="130" d="M1192.24,269.6494 C1195.93,298.4394 1199.82,328.7894 1203.22,355.3394" fill="none" id="Usuario-Reporte" style="stroke:#181818;stroke-width:1;"/>
            <text fill="#000000" font-family="sans-serif" font-size="13" lengthAdjust="spacing" textLength="7.23" x="1185.9735" y="291.2183">1</text>
            <text fill="#000000" font-family="sans-serif" font-size="13" lengthAdjust="spacing" textLength="5.0591" x="1197.0478" y="344.7403">*</text>
        </g>
        <!--link Usuario to Notificacion-->
        <g class="link" data-entity-1="Usuario" data-entity-2="Notificacion" data-source-line="131" data-uid="lnk22" id="link_Usuario_Notificacion">
            <path codeLine="131" d="M1265.21,189.2894 C1341.42,218.5094 1452.87,267.2594 1538,329.6094 C1561.62,346.9094 1584.14,370.6494 1601.31,390.8694" fill="none" id="Usuario-Notificacion" style="stroke:#181818;stroke-width:1;"/>
            <text fill="#000000" font-family="sans-serif" font-size="13" lengthAdjust="spacing" textLength="7.23" x="1272.7366" y="188.7562">1</text>
            <text fill="#000000" font-family="sans-serif" font-size="13" lengthAdjust="spacing" textLength="5.0591" x="1590.6562" y="380.1373">*</text>
        </g>
        <!--link Movimiento to Categoria-->
        <g class="link" data-entity-1="Movimiento" data-entity-2="Categoria" data-source-line="133" data-uid="lnk23" id="link_Movimiento_Categoria">
            <path codeLine="133" d="M813.07,535.9194 C826.71,555.8294 840.77,576.3694 853.71,595.2594" fill="none" id="Movimiento-Categoria" style="stroke:#181818;stroke-width:1;"/>
            <text fill="#000000" font-family="sans-serif" font-size="13" lengthAdjust="spacing" textLength="5.0591" x="813.0283" y="557.5839">*</text>
            <text fill="#000000" font-family="sans-serif" font-size="13" lengthAdjust="spacing" textLength="7.23" x="841.3956" y="584.6527">1</text>
        </g>
        <!--link FiltroMovimiento to Movimiento-->
        <g class="link" data-entity-1="FiltroMovimiento" data-entity-2="Movimiento" data-source-line="135" data-uid="lnk24" id="link_FiltroMovimiento_Movimiento">
            <path codeLine="135" d="M602.74,225.7394 C624.04,256.9994 646.4628,289.9101 670.0928,324.6101" fill="none" id="FiltroMovimiento-to-Movimiento" style="stroke:#181818;stroke-width:1;stroke-dasharray:7,7;"/>
            <polygon fill="#181818" points="673.47,329.5694,671.7104,319.879,670.6557,325.4366,665.098,324.3819,673.47,329.5694" style="stroke:#181818;stroke-width:1;"/>
        </g>
        <!--link TablaMovimientos to Movimiento-->
        <g class="link" data-entity-1="TablaMovimientos" data-entity-2="Movimiento" data-source-line="136" data-uid="lnk25" id="link_TablaMovimientos_Movimiento">
            <path codeLine="136" d="M743,208.3594 C743,242.1194 743,281.9694 743,323.3294" fill="none" id="TablaMovimientos-to-Movimiento" style="stroke:#181818;stroke-width:1;stroke-dasharray:7,7;"/>
            <polygon fill="#181818" points="743,329.3294,747,320.3294,743,324.3294,739,320.3294,743,329.3294" style="stroke:#181818;stroke-width:1;"/>
        </g>
        <!--link FormularioMovimiento to Movimiento-->
        <g class="link" data-entity-1="FormularioMovimiento" data-entity-2="Movimiento" data-source-line="137" data-uid="lnk26" id="link_FormularioMovimiento_Movimiento">
            <path codeLine="137" d="M907.31,199.1894 C883.06,233.4994 850.704,279.2604 818.694,324.5304" fill="none" id="FormularioMovimiento-to-Movimiento" style="stroke:#181818;stroke-width:1;stroke-dasharray:7,7;"/>
            <polygon fill="#181818" points="815.23,329.4294,823.6921,324.3902,818.1167,325.3469,817.1601,319.7715,815.23,329.4294" style="stroke:#181818;stroke-width:1;"/>
        </g>
        <!--SRC=[bLJRZjCm47tFLrZxihiiNSHh9P12afP8RL8bAGBUt6GQ38aTsSw2G7m5Ny8tx8ynSThSsiBIbyOpzfpZESUZcIw0k8pcafQKP42SWYfGP4PScb89tuX3AwPfOLdNhyx-h6lY1TjrV34Fl2v9mYgn5W-iPC2r83yiGlnW6NbnY5zBEqv2wwVLRtLgt4RDjeqNnM5Wh_3JMs_mX3tQkG79HDPMN7j1l3KxayXVUt4IcOKTjC5Z9V-ZxOxX0g7PdgKqPOARIjvxFscOsUuxBqgymF7j9Xf5OMIOBy9eRJj-6FHbe6pvEYixQew6iRED3Cpbnk7Us8l99l8HOMEllCjTJ54NHRQgfdXV0pGZB9kJxTPtpOABSYTXJc8j6SzD22cnOXH91TSI1NxyJKTntVLyFkZ_eAvNLXBKyD0TAKJE-8q1UKugfFTLoEpMf2JaJ26Il6dNDDKrBTXtAb6lFIiEuPIMEqQbqxF217QilMmCwgW7CXHVW8yuxo7zH7tEKBGvkbL3maem6KHZ3yZrZH05K6wWMBEHohRc4Hwa78Gwu8bH9urkUZMV6DeaCb2fP5LZeX5HLbP2QfJ6XPIL-9GwzYtlGvirLQFsfXAw_a66Rx1R58ZApRAZx62TN4X6dsYD2vVuJzG8pCqEc2U2zD45uuEGxj_jVFY83KuE752L25HTGgSKBTAweDBdETfGg4buIPKsmRuVWkzPNil-ISz8AJXaOz_lXIof5ejMZ65_qDPpywWd_XqL7YAUp91XauV9bWjmHJ_tcZnbJBWUiJVXXv3SR7toWgmUVorznxxznyXOi49BSM9f8uiBAeEfLc-ncNIYrbchqAh0AntzWVQesDWU2TqLj3-a3FGTsJUCkdExMlL5u5jZg76L1MhKYCocbxWZ3wX9rX_c3ns1oysCl9MPt7-PjSSfU_NoYincvgyT4YUPPrU3ON4ksxtBSqL7NZft-l2-pgL6Zh86dMcIn_eTk7NYWllxrqFg9r9DycT56E_v0m00]-->
    </g>
</svg>
